<?xml-stylesheet href="../../css/nonIE11.css" type="text/css"?>

<svg version="1.1" id="Capa_1" xmlns="http://www.w3.org/2000/svg" xmlns:xlink="http://www.w3.org/1999/xlink" x="0px" y="0px"	 viewBox="0 0 65.994 65.994" width="40px" height="40px"
	 xml:space="preserve">
<g>
	<g>
		<g>
			<path d="M33.753,50.937c-5.351,0-10.35-2.052-14.076-5.776l-0.658-0.658c-3.777-3.778-5.829-8.849-5.776-14.278
				c0.053-5.392,2.17-10.448,5.96-14.237L29.48,5.707c0.75-0.75,2.078-0.75,2.828,0L58.472,31.87
				c0.375,0.375,0.586,0.884,0.586,1.414s-0.211,1.04-0.586,1.415L48.193,44.976C44.351,48.82,39.222,50.937,33.753,50.937z
				 M30.895,9.95l-8.863,8.863c-3.045,3.045-4.745,7.111-4.788,11.449c-0.042,4.346,1.593,8.398,4.605,11.411l0.658,0.658
				c2.97,2.97,6.964,4.604,11.247,4.604c4.399,0,8.523-1.7,11.613-4.789l8.862-8.863L30.895,9.95z"/>
		</g>
		<g>
			<path d="M25.359,22.142c-0.256,0-0.513-0.098-0.708-0.293c-0.39-0.391-0.39-1.023,0.001-1.414l0.707-0.707
				c0.391-0.391,1.024-0.391,1.415,0c0.39,0.392,0.39,1.024-0.001,1.414l-0.707,0.707C25.872,22.044,25.616,22.142,25.359,22.142z"
				/>
		</g>
		<g>
			<path d="M22.17,34.815c-0.445,0-0.852-0.299-0.968-0.75c-0.964-3.733-0.402-7.773,1.541-11.083
				c0.279-0.476,0.892-0.637,1.368-0.355c0.477,0.279,0.636,0.893,0.356,1.368c-1.677,2.856-2.161,6.345-1.329,9.57
				c0.139,0.535-0.184,1.08-0.718,1.219C22.337,34.807,22.253,34.815,22.17,34.815z"/>
		</g>
		<g>
			<path d="M3.816,65.994c-0.103,0-0.208-0.008-0.313-0.024c-1.089-0.172-1.834-1.19-1.664-2.281
				c0.063-0.408,1.644-10.062,8.861-13.604c5.075-2.488,6.701-8.313,6.717-8.371c0.287-1.063,1.383-1.698,2.447-1.413
				c1.065,0.283,1.7,1.372,1.42,2.438c-0.082,0.311-2.076,7.631-8.822,10.938c-5.336,2.617-6.66,10.55-6.673,10.631
				C5.633,65.292,4.784,65.994,3.816,65.994z"/>
		</g>
		<g>
			<g>
				<path d="M37.966,16.192c-0.512,0-1.023-0.194-1.414-0.586c-0.781-0.78-0.781-2.047,0-2.827L48.744,0.586
					c0.779-0.781,2.048-0.781,2.828,0s0.78,2.047,0,2.828L39.38,15.606C38.99,15.997,38.477,16.192,37.966,16.192z"/>
			</g>
			<g>
				<path d="M49.985,28.213c-0.512,0-1.022-0.195-1.413-0.586c-0.781-0.781-0.781-2.047,0-2.828l12.192-12.192
					c0.78-0.78,2.048-0.78,2.828,0c0.781,0.781,0.781,2.048,0,2.828L51.399,27.627C51.011,28.018,50.498,28.213,49.985,28.213z"/>
			</g>
		</g>
	</g>
</g>
<g>
</g>
<g>
</g>
<g>
</g>
<g>
</g>
<g>
</g>
<g>
</g>
<g>
</g>
<g>
</g>
<g>
</g>
<g>
</g>
<g>
</g>
<g>
</g>
<g>
</g>
<g>
</g>
<g>
</g>
</svg>
